<?xml version="1.0" encoding="UTF-8" standalone="no"?>
<svg
   xmlns:dc="http://purl.org/dc/elements/1.1/"
   xmlns:cc="http://creativecommons.org/ns#"
   xmlns:rdf="http://www.w3.org/1999/02/22-rdf-syntax-ns#"
   xmlns:svg="http://www.w3.org/2000/svg"
   xmlns="http://www.w3.org/2000/svg"
   xmlns:sodipodi="http://sodipodi.sourceforge.net/DTD/sodipodi-0.dtd"
   xmlns:inkscape="http://www.inkscape.org/namespaces/inkscape"
   width="1024mm"
   height="764mm"
   viewBox="0 0 1024 764"
   version="1.1"
   id="svg1442"
   inkscape:version="1.0 (4035a4fb49, 2020-05-01)"
   sodipodi:docname="brain.svg">
  <defs
     id="defs1436" />
  <sodipodi:namedview
     id="base"
     pagecolor="#ffffff"
     bordercolor="#666666"
     borderopacity="1.0"
     inkscape:pageopacity="0.0"
     inkscape:pageshadow="2"
     inkscape:zoom="0.35"
     inkscape:cx="1763.4715"
     inkscape:cy="1294.5002"
     inkscape:document-units="mm"
     inkscape:current-layer="layer1"
     inkscape:document-rotation="0"
     showgrid="false"
     inkscape:window-width="1920"
     inkscape:window-height="1006"
     inkscape:window-x="0"
     inkscape:window-y="0"
     inkscape:window-maximized="1" />
  <metadata
     id="metadata1439">
    <rdf:RDF>
      <cc:Work
         rdf:about="">
        <dc:format>image/svg+xml</dc:format>
        <dc:type
           rdf:resource="http://purl.org/dc/dcmitype/StillImage" />
        <dc:title />
      </cc:Work>
    </rdf:RDF>
  </metadata>
  <g
     inkscape:label="Layer 1"
     inkscape:groupmode="layer"
     id="layer1">
    <path
       id="path1425"
       d="m 510.3906,687.66404 h 6.51992 c 25.0039,57.05846 112.33167,73.19003 169.51784,47.91045 23.63469,-10.44503 35.06415,-30.7269 56.01912,-42.1807 38.98913,-21.30505 77.30345,-16.7022 100.74583,-60.49117 10.6274,-19.85243 7.37723,-40.60987 14.58825,-60.52572 10.17438,-28.09838 31.84003,-45.71137 30.6241,-77.81884 -0.71068,-18.69382 -14.66981,-34.17976 -16.07164,-51.8792 -1.79949,-22.73464 18.30142,-44.57289 15.65436,-69.17229 -3.32841,-30.88254 -28.05197,-46.80655 -36.92558,-73.7146 -6.69268,-20.29888 7.09041,-44.59821 -0.89973,-67.51212 C 839.4052,201.42642 811.20658,192.17435 794.09828,167.78877 784.37382,153.931 787.461,132.4605 778.27769,116.99269 763.54267,92.173133 738.33016,89.275099 717.4925,72.290121 699.54641,57.664216 691.88877,38.739944 670.12859,26.344184 619.70352,-2.3825027 545.40583,10.788895 516.91052,59.349167 H 510.3906 C 481.89528,10.788998 407.59891,-2.3826033 357.17258,26.344184 c -21.75926,12.395812 -29.41851,31.320032 -47.36235,45.945937 -20.83894,16.984978 -46.05145,19.883012 -60.78745,44.702569 -9.1833,15.46781 -6.0971,36.93831 -15.81926,50.79608 -17.10765,24.38558 -45.30592,33.63765 -56.06577,64.49108 -8.0446,23.06838 5.85163,47.46892 -0.90041,67.95022 -8.81101,26.72357 -33.60427,42.46023 -36.92357,73.2765 -2.6497,24.5994 17.45216,46.43765 15.65331,69.17229 -1.40043,17.69944 -15.36252,33.18538 -16.07094,51.8792 -1.21662,32.10747 20.45006,49.72046 30.62243,77.81884 7.30914,20.18963 3.27368,40.61856 14.81588,60.52572 13.30228,22.94216 34.62203,41.22957 61.99954,50.53036 12.2799,4.1705 27.33863,3.42979 38.51831,9.81672 20.90876,11.94662 32.21492,31.80196 56.02045,42.32479 57.18427,25.27958 144.51395,9.14801 169.51785,-47.91045 m -13.03986,-458.2664 c -11.12618,-3.66611 -44.96459,-15.31876 -44.96459,5.76435 0,17.50495 40.23116,17.84793 44.26697,40.35286 5.2746,29.40743 0.69762,62.4602 0.69762,92.2274 v 184.4594 c -24.93868,-15.33317 -46.84886,-32.56861 -78.23897,-36.6008 -10.0821,-1.29697 -26.71408,-2.2827 -31.27148,8.19408 -8.29398,19.05983 54.26399,25.00863 67.13104,33.12773 52.33207,33.02397 55.67356,100.3632 9.64943,139.08816 -34.27192,28.83331 -89.84803,30.92287 -126.87951,4.53943 -13.41374,-9.55732 -19.82578,-25.38334 -33.40968,-34.2057 -20.28246,-13.17154 -49.09728,-5.32625 -70.90672,-22.52713 -31.80087,-25.08068 -19.36999,-49.6628 -29.18347,-80.08705 -3.5628,-11.04452 -15.5135,-19.03105 -21.9219,-28.82181 -15.54451,-23.74913 -11.52169,-47.53576 -1.18467,-72.05446 13.54214,4.35784 79.93547,38.71344 84.1855,8.53414 1.55564,-11.05026 -13.02454,-14.57514 -22.2489,-16.57251 -27.59687,-5.96611 -49.3711,-17.80903 -62.48494,-40.95865 -13.96762,-24.65708 -11.90344,-55.40411 6.86941,-77.70642 7.86982,-9.34689 23.20113,-16.98466 26.04707,-28.94569 2.6148,-10.98832 -6.77325,-23.69323 -8.56751,-34.57464 -4.64873,-28.19493 11.22563,-57.92688 38.1865,-73.32432 36.83134,-21.03472 85.1462,-10.50412 109.00225,21.4875 10.37838,13.91777 9.90017,28.52264 16.7474,43.13235 4.63826,9.89657 16.81517,15.37498 25.40545,5.33983 10.5134,-12.28154 -0.53481,-36.49357 -7.06559,-48.51456 -23.27776,-42.84647 -66.73951,-60.52575 -118.05775,-60.52575 1.97194,-38.06462 38.01923,-66.041926 81.49896,-56.9409 13.25625,2.77467 31.97303,19.1492 45.1918,15.28277 37.10257,-10.852 -34.56923,-41.745204 -45.1918,-44.807202 32.02224,-47.962638 108.63812,-43.095542 136.93127,5.764363 23.36742,40.354519 9.76681,105.511899 9.76681,149.873229 M 676.64851,73.760048 c -10.55575,3.043003 -82.27485,34.475172 -45.19284,44.838352 13.38868,3.74107 31.80744,-12.51213 45.19284,-15.31392 43.47804,-9.101026 79.52669,18.87628 81.49897,56.9409 -51.31833,0 -94.78005,17.67928 -118.05944,60.52575 -6.52968,12.02099 -17.57767,36.23302 -7.06432,48.51456 8.58998,10.03515 20.76593,4.55674 25.40489,-5.33983 6.84913,-14.60948 6.36993,-29.21458 16.74963,-43.13235 23.85641,-31.99192 72.16896,-42.52222 109.00002,-21.4875 26.96312,15.39744 42.83585,45.12939 38.18713,73.32432 -1.79296,10.88141 -11.18163,23.58632 -8.56716,34.57464 2.84595,11.96103 18.17751,19.5988 26.04707,28.94569 18.77413,22.30231 20.83764,53.04934 6.86876,77.70642 -13.11159,23.14962 -34.88811,34.99254 -62.48364,40.95865 -9.22571,1.99737 -23.80421,5.52225 -22.24921,16.57251 4.25095,30.1793 70.64329,-4.1763 84.18516,-8.53414 10.33731,24.5187 14.36012,48.30533 -1.18335,72.05446 -6.40909,9.79076 -18.36014,17.77729 -21.92322,28.82181 -9.84513,30.52515 3.2795,54.67779 -29.19294,79.75277 -22.00149,16.99042 -50.65326,9.71579 -70.89759,22.86141 -13.58426,8.82236 -19.99659,24.64838 -33.40808,34.2057 -37.03314,26.38344 -92.60895,24.29388 -126.88084,-4.53943 -46.02413,-38.72496 -42.68265,-106.06419 9.6495,-139.08816 12.86705,-8.1191 75.42566,-14.0679 67.1323,-33.12773 -4.55741,-10.47678 -21.18974,-9.49105 -31.27282,-8.19408 -31.38685,4.03219 -53.30028,21.26763 -78.23897,36.6008 v -184.4594 c 0,-29.7672 -4.57698,-62.81997 0.69763,-92.2274 4.03582,-22.50493 44.26699,-22.84791 44.26699,-40.35286 0,-21.08311 -33.83836,-9.43046 -44.96462,-5.76435 0,-44.36158 -13.60053,-109.51871 9.76681,-149.873229 C 568.0104,30.664506 644.62593,25.79746 676.64851,73.760048 M 423.79636,134.37917 c -15.24263,9.16042 1.83857,28.92726 16.71053,19.98846 15.24355,-9.16041 -1.83863,-28.92725 -16.71053,-19.98846 m 162.99792,0 c -15.24362,9.16042 1.83858,28.92726 16.71052,19.98846 15.24357,-9.16041 -1.83862,-28.92725 -16.71052,-19.98846 M 363.69245,361.97789 c -13.1311,26.31715 -40.59687,20.22134 -56.64929,38.38194 -20.2293,22.88739 28.48913,20.66237 40.3495,16.72525 31.82796,-10.56027 32.42358,-33.01821 53.82194,-50.53034 12.09671,-9.90026 33.30048,-10.77934 47.09333,-19.63338 8.70089,-5.58564 20.82462,-16.93855 10.71226,-26.4353 -13.26803,-12.46256 -36.86587,6.86821 -49.68826,11.05889 -23.44531,7.66081 -47.56671,3.78717 -68.44648,-7.81936 -29.43608,-16.36498 -28.9305,-37.6542 -41.05133,-62.45506 -3.46076,-7.08066 -11.66771,-12.38301 -20.42004,-8.56641 -16.62549,7.25012 -7.75452,31.21311 -3.98955,42.98368 11.41571,35.68997 47.35022,61.39327 88.26792,66.29009 m 299.91622,0 c 40.91903,-4.89682 76.85352,-30.60012 88.26665,-66.29009 3.76522,-11.77057 12.63556,-35.73356 -3.98696,-42.98368 -8.75949,-3.81944 -16.95178,1.48948 -20.42037,8.56641 -12.22158,24.92995 -11.74562,46.33503 -41.04285,62.8557 -20.48889,11.55176 -45.52862,14.9095 -68.45589,7.41872 -12.82143,-4.19068 -36.4203,-23.52145 -49.68827,-11.05889 -10.11242,9.49675 2.01137,20.84966 10.71219,26.4353 13.79288,8.85404 34.99567,9.73312 47.09334,19.63338 21.39842,17.51213 21.99497,39.97007 53.82192,50.53034 11.85978,3.93712 60.57982,6.16214 40.34853,-16.72525 -16.05201,-18.1606 -43.51721,-12.06479 -56.64829,-38.38194 m -277.09646,96.45207 c -32.78156,5.2254 -63.59434,22.50404 -84.69865,45.03403 -7.56443,8.07298 -26.23679,37.59226 0.0704,37.59226 17.05249,0 30.41572,-23.92495 42.37721,-32.60896 23.93295,-17.37375 58.87742,-13.27244 79.94264,-28.12144 28.12042,-19.81787 -25.47985,-23.84421 -37.69166,-21.89589 m 216.58515,1.62266 c -8.03906,4.98039 -7.32839,15.1084 0,20.27323 12.68123,8.93769 35.69328,6.26012 50.73144,12.25218 24.85067,9.90316 37.32,25.87619 56.39729,41.66186 6.38301,5.2802 15.60869,9.80518 23.64124,4.16765 16.38126,-11.49987 -5.74083,-32.4706 -14.96974,-40.95579 C 697.95893,478.1988 635.961,439.67848 603.09738,460.05262 M 277.09985,575.33977 c -8.04589,4.98617 -7.31731,15.09973 0,20.27324 12.561,8.87711 33.31155,7.86838 47.46042,15.84333 31.46253,17.73407 31.22916,40.62432 44.31133,67.39109 3.46082,7.08152 11.6677,12.38475 20.42004,8.56876 16.85078,-7.34961 7.94746,-34.01258 3.4008,-45.86699 -11.13568,-29.03798 -73.46546,-92.31906 -115.59259,-66.20943 M 719.028,573.86985 c -38.5979,7.27753 -69.32624,32.51964 -83.23324,64.79714 -4.60959,10.69288 -17.36582,55.76152 11.3381,49.71181 16.62257,-3.50183 21.7309,-45.73436 32.53765,-58.24593 19.55978,-22.63954 55.27262,-18.59002 72.74598,-36.3241 19.17837,-19.46333 -21.10171,-22.25618 -33.38849,-19.93892 z"
       style="fill:#070707;stroke:none;stroke-width:3.06526" />
  </g>
</svg>
